<?xml version="1.0" encoding="utf-8" standalone="no"?>
<!DOCTYPE svg PUBLIC "-//W3C//DTD SVG 1.1//EN"
  "http://www.w3.org/Graphics/SVG/1.1/DTD/svg11.dtd">
<!-- Created with matplotlib (http://matplotlib.org/) -->
<svg height="280pt" version="1.1" viewBox="0 0 393 280" width="393pt" xmlns="http://www.w3.org/2000/svg" xmlns:xlink="http://www.w3.org/1999/xlink">
 <defs>
  <style type="text/css">
*{stroke-linecap:butt;stroke-linejoin:round;stroke-miterlimit:100000;}
  </style>
 </defs>
 <g id="figure_1">
  <g id="patch_1">
   <path d="M 0 280.074375 
L 393.328125 280.074375 
L 393.328125 0 
L 0 0 
L 0 280.074375 
z
" style="fill:none;"/>
  </g>
  <g id="axes_1">
   <g id="patch_2">
    <path d="M 51.328125 244.518125 
L 386.128125 244.518125 
L 386.128125 21.318125 
L 51.328125 21.318125 
z
" style="fill:#ffffff;"/>
   </g>
   <g id="line2d_1">
    <path clip-path="url(#p4154f5902c)" d="M 188.596125 21.318125 
L 188.596125 24.813881 
L 188.596125 29.969666 
L 188.596125 36.78548 
L 188.596125 45.261322 
L 188.596125 55.397193 
L 188.596125 67.193093 
L 188.596125 80.649021 
L 188.596125 95.764977 
L 188.596125 112.540962 
L 189.101222 130.976976 
L 190.111417 150.548613 
L 193.307434 168.976625 
L 199.387074 186.024411 
L 205.384556 201.682222 
L 209.105828 215.181659 
L 209.083197 226.510871 
L 204.57187 234.890917 
L 197.743224 240.30696 
L 192.365688 243.520073 
L 190.828125 244.518125 
" style="fill:none;stroke:#000000;stroke-linecap:square;"/>
    <defs>
     <path d="M 0 1.5 
C 0.397805 1.5 0.77937 1.341951 1.06066 1.06066 
C 1.341951 0.77937 1.5 0.397805 1.5 0 
C 1.5 -0.397805 1.341951 -0.77937 1.06066 -1.06066 
C 0.77937 -1.341951 0.397805 -1.5 0 -1.5 
C -0.397805 -1.5 -0.77937 -1.341951 -1.06066 -1.06066 
C -1.341951 -0.77937 -1.5 -0.397805 -1.5 0 
C -1.5 0.397805 -1.341951 0.77937 -1.06066 1.06066 
C -0.77937 1.341951 -0.397805 1.5 0 1.5 
z
" id="mf07f0b4f3e" style="stroke:#000000;stroke-width:0.5;"/>
    </defs>
    <g clip-path="url(#p4154f5902c)">
     <use style="stroke:#000000;stroke-width:0.5;" x="188.596125" xlink:href="#mf07f0b4f3e" y="21.318125"/>
     <use style="stroke:#000000;stroke-width:0.5;" x="188.596125" xlink:href="#mf07f0b4f3e" y="24.8138814385"/>
     <use style="stroke:#000000;stroke-width:0.5;" x="188.596125" xlink:href="#mf07f0b4f3e" y="29.9696664708"/>
     <use style="stroke:#000000;stroke-width:0.5;" x="188.596125" xlink:href="#mf07f0b4f3e" y="36.7854800971"/>
     <use style="stroke:#000000;stroke-width:0.5;" x="188.596125" xlink:href="#mf07f0b4f3e" y="45.2613223172"/>
     <use style="stroke:#000000;stroke-width:0.5;" x="188.596125" xlink:href="#mf07f0b4f3e" y="55.3971931311"/>
     <use style="stroke:#000000;stroke-width:0.5;" x="188.596125" xlink:href="#mf07f0b4f3e" y="67.193092539"/>
     <use style="stroke:#000000;stroke-width:0.5;" x="188.596125" xlink:href="#mf07f0b4f3e" y="80.6490205407"/>
     <use style="stroke:#000000;stroke-width:0.5;" x="188.596125" xlink:href="#mf07f0b4f3e" y="95.7649771362"/>
     <use style="stroke:#000000;stroke-width:0.5;" x="188.596125" xlink:href="#mf07f0b4f3e" y="112.540962326"/>
     <use style="stroke:#000000;stroke-width:0.5;" x="189.101222396" xlink:href="#mf07f0b4f3e" y="130.976976109"/>
     <use style="stroke:#000000;stroke-width:0.5;" x="190.111417188" xlink:href="#mf07f0b4f3e" y="150.548612977"/>
     <use style="stroke:#000000;stroke-width:0.5;" x="193.307433777" xlink:href="#mf07f0b4f3e" y="168.976624959"/>
     <use style="stroke:#000000;stroke-width:0.5;" x="199.38707423" xlink:href="#mf07f0b4f3e" y="186.024411406"/>
     <use style="stroke:#000000;stroke-width:0.5;" x="205.384556174" xlink:href="#mf07f0b4f3e" y="201.682221936"/>
     <use style="stroke:#000000;stroke-width:0.5;" x="209.105827616" xlink:href="#mf07f0b4f3e" y="215.181659142"/>
     <use style="stroke:#000000;stroke-width:0.5;" x="209.083197433" xlink:href="#mf07f0b4f3e" y="226.510871246"/>
     <use style="stroke:#000000;stroke-width:0.5;" x="204.571869832" xlink:href="#mf07f0b4f3e" y="234.890916582"/>
     <use style="stroke:#000000;stroke-width:0.5;" x="197.743224494" xlink:href="#mf07f0b4f3e" y="240.306960382"/>
     <use style="stroke:#000000;stroke-width:0.5;" x="192.365688455" xlink:href="#mf07f0b4f3e" y="243.520073346"/>
     <use style="stroke:#000000;stroke-width:0.5;" x="190.828125" xlink:href="#mf07f0b4f3e" y="244.518125"/>
    </g>
   </g>
   <g id="line2d_2">
    <path clip-path="url(#p4154f5902c)" d="M 188.596125 21.318125 
L 193.374266 24.813881 
L 198.152408 29.969666 
L 202.930549 36.78548 
L 207.708691 45.261322 
L 212.486832 55.397193 
L 217.264974 67.193093 
L 222.043115 80.649021 
L 226.821256 95.764977 
L 231.599398 112.540962 
L 236.377539 130.976976 
L 241.029461 150.548613 
L 243.275915 168.976625 
L 242.482114 186.024411 
L 238.638363 201.682222 
L 230.976262 215.181659 
L 219.483908 226.510871 
L 206.837993 234.890917 
L 197.655051 240.30696 
L 192.334267 243.520073 
L 190.828125 244.518125 
" style="fill:none;stroke:#000000;stroke-dasharray:6.000000,6.000000;stroke-dashoffset:0.0;"/>
    <g clip-path="url(#p4154f5902c)">
     <use style="stroke:#000000;stroke-width:0.5;" x="188.596125" xlink:href="#mf07f0b4f3e" y="21.318125"/>
     <use style="stroke:#000000;stroke-width:0.5;" x="193.374266418" xlink:href="#mf07f0b4f3e" y="24.8138814385"/>
     <use style="stroke:#000000;stroke-width:0.5;" x="198.152407837" xlink:href="#mf07f0b4f3e" y="29.9696664708"/>
     <use style="stroke:#000000;stroke-width:0.5;" x="202.930549255" xlink:href="#mf07f0b4f3e" y="36.7854800971"/>
     <use style="stroke:#000000;stroke-width:0.5;" x="207.708690674" xlink:href="#mf07f0b4f3e" y="45.2613223172"/>
     <use style="stroke:#000000;stroke-width:0.5;" x="212.486832092" xlink:href="#mf07f0b4f3e" y="55.3971931311"/>
     <use style="stroke:#000000;stroke-width:0.5;" x="217.264973511" xlink:href="#mf07f0b4f3e" y="67.193092539"/>
     <use style="stroke:#000000;stroke-width:0.5;" x="222.043114929" xlink:href="#mf07f0b4f3e" y="80.6490205407"/>
     <use style="stroke:#000000;stroke-width:0.5;" x="226.821256348" xlink:href="#mf07f0b4f3e" y="95.7649771362"/>
     <use style="stroke:#000000;stroke-width:0.5;" x="231.599397766" xlink:href="#mf07f0b4f3e" y="112.540962326"/>
     <use style="stroke:#000000;stroke-width:0.5;" x="236.377539185" xlink:href="#mf07f0b4f3e" y="130.976976109"/>
     <use style="stroke:#000000;stroke-width:0.5;" x="241.029460787" xlink:href="#mf07f0b4f3e" y="150.548612977"/>
     <use style="stroke:#000000;stroke-width:0.5;" x="243.275914603" xlink:href="#mf07f0b4f3e" y="168.976624959"/>
     <use style="stroke:#000000;stroke-width:0.5;" x="242.482114291" xlink:href="#mf07f0b4f3e" y="186.024411406"/>
     <use style="stroke:#000000;stroke-width:0.5;" x="238.638362597" xlink:href="#mf07f0b4f3e" y="201.682221936"/>
     <use style="stroke:#000000;stroke-width:0.5;" x="230.976262114" xlink:href="#mf07f0b4f3e" y="215.181659142"/>
     <use style="stroke:#000000;stroke-width:0.5;" x="219.483907934" xlink:href="#mf07f0b4f3e" y="226.510871246"/>
     <use style="stroke:#000000;stroke-width:0.5;" x="206.837992638" xlink:href="#mf07f0b4f3e" y="234.890916582"/>
     <use style="stroke:#000000;stroke-width:0.5;" x="197.655051251" xlink:href="#mf07f0b4f3e" y="240.306960382"/>
     <use style="stroke:#000000;stroke-width:0.5;" x="192.33426749" xlink:href="#mf07f0b4f3e" y="243.520073346"/>
     <use style="stroke:#000000;stroke-width:0.5;" x="190.828125" xlink:href="#mf07f0b4f3e" y="244.518125"/>
    </g>
   </g>
   <g id="line2d_3">
    <path clip-path="url(#p4154f5902c)" d="M 190.828125 21.318125 
L 195.606266 24.813881 
L 200.384408 29.969666 
L 205.162549 36.78548 
L 209.940691 45.261322 
L 214.718832 55.397193 
L 219.496974 67.193093 
L 224.275115 80.649021 
L 229.053256 95.764977 
L 233.831398 112.540962 
L 238.609539 130.976976 
L 243.080472 150.548613 
L 244.971684 168.976625 
L 243.830344 186.024411 
L 239.639967 201.682222 
L 231.637396 215.181659 
L 219.811408 226.510871 
L 206.973231 234.890917 
L 197.738666 240.30696 
L 192.365225 243.520073 
L 190.828125 244.518125 
" style="fill:none;stroke:#000000;stroke-dasharray:6.000000,6.000000;stroke-dashoffset:0.0;"/>
    <g clip-path="url(#p4154f5902c)">
     <use style="stroke:#000000;stroke-width:0.5;" x="190.828125" xlink:href="#mf07f0b4f3e" y="21.318125"/>
     <use style="stroke:#000000;stroke-width:0.5;" x="195.606266418" xlink:href="#mf07f0b4f3e" y="24.8138814385"/>
     <use style="stroke:#000000;stroke-width:0.5;" x="200.384407837" xlink:href="#mf07f0b4f3e" y="29.9696664708"/>
     <use style="stroke:#000000;stroke-width:0.5;" x="205.162549255" xlink:href="#mf07f0b4f3e" y="36.7854800969"/>
     <use style="stroke:#000000;stroke-width:0.5;" x="209.940690674" xlink:href="#mf07f0b4f3e" y="45.261322317"/>
     <use style="stroke:#000000;stroke-width:0.5;" x="214.718832092" xlink:href="#mf07f0b4f3e" y="55.3971931309"/>
     <use style="stroke:#000000;stroke-width:0.5;" x="219.496973511" xlink:href="#mf07f0b4f3e" y="67.1930925386"/>
     <use style="stroke:#000000;stroke-width:0.5;" x="224.275114929" xlink:href="#mf07f0b4f3e" y="80.6490205402"/>
     <use style="stroke:#000000;stroke-width:0.5;" x="229.053256347" xlink:href="#mf07f0b4f3e" y="95.7649771357"/>
     <use style="stroke:#000000;stroke-width:0.5;" x="233.831397766" xlink:href="#mf07f0b4f3e" y="112.540962325"/>
     <use style="stroke:#000000;stroke-width:0.5;" x="238.609539184" xlink:href="#mf07f0b4f3e" y="130.976976108"/>
     <use style="stroke:#000000;stroke-width:0.5;" x="243.080472332" xlink:href="#mf07f0b4f3e" y="150.548612976"/>
     <use style="stroke:#000000;stroke-width:0.5;" x="244.971683993" xlink:href="#mf07f0b4f3e" y="168.976624958"/>
     <use style="stroke:#000000;stroke-width:0.5;" x="243.830344063" xlink:href="#mf07f0b4f3e" y="186.024411405"/>
     <use style="stroke:#000000;stroke-width:0.5;" x="239.639967409" xlink:href="#mf07f0b4f3e" y="201.682221936"/>
     <use style="stroke:#000000;stroke-width:0.5;" x="231.637396024" xlink:href="#mf07f0b4f3e" y="215.181659142"/>
     <use style="stroke:#000000;stroke-width:0.5;" x="219.811408131" xlink:href="#mf07f0b4f3e" y="226.510871246"/>
     <use style="stroke:#000000;stroke-width:0.5;" x="206.973231118" xlink:href="#mf07f0b4f3e" y="234.890916582"/>
     <use style="stroke:#000000;stroke-width:0.5;" x="197.738665826" xlink:href="#mf07f0b4f3e" y="240.306960382"/>
     <use style="stroke:#000000;stroke-width:0.5;" x="192.365224993" xlink:href="#mf07f0b4f3e" y="243.520073346"/>
     <use style="stroke:#000000;stroke-width:0.5;" x="190.828125" xlink:href="#mf07f0b4f3e" y="244.518125"/>
    </g>
   </g>
   <g id="line2d_4">
    <path clip-path="url(#p4154f5902c)" d="M 190.828125 21.318125 
L 198.982708 26.465395 
L 205.915782 33.681107 
L 212.412802 42.179806 
L 218.909822 52.397547 
L 225.406862 64.334305 
L 231.903836 77.989993 
L 238.394343 93.358257 
L 244.197631 109.758343 
L 249.320084 127.196636 
L 253.654116 145.56555 
L 256.109131 163.774489 
L 255.101525 180.239848 
L 250.929883 195.260214 
L 243.583828 208.825208 
L 232.267577 220.139049 
L 218.185435 229.767122 
L 205.32617 236.896247 
L 197.276797 240.934522 
L 192.440621 243.478643 
L 190.828125 244.518125 
" style="fill:none;stroke:#000000;stroke-dasharray:6.000000,6.000000;stroke-dashoffset:0.0;"/>
    <g clip-path="url(#p4154f5902c)">
     <use style="stroke:#000000;stroke-width:0.5;" x="190.828125" xlink:href="#mf07f0b4f3e" y="21.318125"/>
     <use style="stroke:#000000;stroke-width:0.5;" x="198.982708044" xlink:href="#mf07f0b4f3e" y="26.4653950776"/>
     <use style="stroke:#000000;stroke-width:0.5;" x="205.915782324" xlink:href="#mf07f0b4f3e" y="33.6811069265"/>
     <use style="stroke:#000000;stroke-width:0.5;" x="212.412802187" xlink:href="#mf07f0b4f3e" y="42.1798061991"/>
     <use style="stroke:#000000;stroke-width:0.5;" x="218.909822049" xlink:href="#mf07f0b4f3e" y="52.3975473122"/>
     <use style="stroke:#000000;stroke-width:0.5;" x="225.406861836" xlink:href="#mf07f0b4f3e" y="64.3343047691"/>
     <use style="stroke:#000000;stroke-width:0.5;" x="231.903836052" xlink:href="#mf07f0b4f3e" y="77.9899933255"/>
     <use style="stroke:#000000;stroke-width:0.5;" x="238.394342897" xlink:href="#mf07f0b4f3e" y="93.3582566011"/>
     <use style="stroke:#000000;stroke-width:0.5;" x="244.197631498" xlink:href="#mf07f0b4f3e" y="109.758343474"/>
     <use style="stroke:#000000;stroke-width:0.5;" x="249.320083732" xlink:href="#mf07f0b4f3e" y="127.19663582"/>
     <use style="stroke:#000000;stroke-width:0.5;" x="253.654116192" xlink:href="#mf07f0b4f3e" y="145.565550232"/>
     <use style="stroke:#000000;stroke-width:0.5;" x="256.109130928" xlink:href="#mf07f0b4f3e" y="163.774488761"/>
     <use style="stroke:#000000;stroke-width:0.5;" x="255.101524648" xlink:href="#mf07f0b4f3e" y="180.239848115"/>
     <use style="stroke:#000000;stroke-width:0.5;" x="250.929883238" xlink:href="#mf07f0b4f3e" y="195.260214179"/>
     <use style="stroke:#000000;stroke-width:0.5;" x="243.583828238" xlink:href="#mf07f0b4f3e" y="208.825208494"/>
     <use style="stroke:#000000;stroke-width:0.5;" x="232.267577382" xlink:href="#mf07f0b4f3e" y="220.139048794"/>
     <use style="stroke:#000000;stroke-width:0.5;" x="218.185434764" xlink:href="#mf07f0b4f3e" y="229.767122067"/>
     <use style="stroke:#000000;stroke-width:0.5;" x="205.326170107" xlink:href="#mf07f0b4f3e" y="236.896247256"/>
     <use style="stroke:#000000;stroke-width:0.5;" x="197.27679748" xlink:href="#mf07f0b4f3e" y="240.934522254"/>
     <use style="stroke:#000000;stroke-width:0.5;" x="192.440620692" xlink:href="#mf07f0b4f3e" y="243.478643254"/>
     <use style="stroke:#000000;stroke-width:0.5;" x="190.828125" xlink:href="#mf07f0b4f3e" y="244.518125"/>
    </g>
   </g>
   <g id="patch_3">
    <path d="M 51.328125 21.318125 
L 386.128125 21.318125 
" style="fill:none;stroke:#000000;stroke-linecap:square;stroke-linejoin:miter;"/>
   </g>
   <g id="patch_4">
    <path d="M 386.128125 244.518125 
L 386.128125 21.318125 
" style="fill:none;stroke:#000000;stroke-linecap:square;stroke-linejoin:miter;"/>
   </g>
   <g id="patch_5">
    <path d="M 51.328125 244.518125 
L 386.128125 244.518125 
" style="fill:none;stroke:#000000;stroke-linecap:square;stroke-linejoin:miter;"/>
   </g>
   <g id="patch_6">
    <path d="M 51.328125 244.518125 
L 51.328125 21.318125 
" style="fill:none;stroke:#000000;stroke-linecap:square;stroke-linejoin:miter;"/>
   </g>
   <g id="matplotlib.axis_1">
    <g id="xtick_1">
     <g id="line2d_5">
      <defs>
       <path d="M 0 0 
L 0 -4 
" id="m34ef3ea750" style="stroke:#000000;stroke-width:0.5;"/>
      </defs>
      <g>
       <use style="stroke:#000000;stroke-width:0.5;" x="56.908125" xlink:href="#m34ef3ea750" y="244.518125"/>
      </g>
     </g>
     <g id="line2d_6">
      <defs>
       <path d="M 0 0 
L 0 4 
" id="m0ffe1f01fa" style="stroke:#000000;stroke-width:0.5;"/>
      </defs>
      <g>
       <use style="stroke:#000000;stroke-width:0.5;" x="56.908125" xlink:href="#m0ffe1f01fa" y="21.318125"/>
      </g>
     </g>
     <g id="text_1">
      <!-- −600 -->
      <defs>
       <path d="M 10.59375 35.5 
L 73.1875 35.5 
L 73.1875 27.203125 
L 10.59375 27.203125 
z
" id="BitstreamVeraSans-Roman-2212"/>
       <path d="M 31.78125 66.40625 
Q 24.171875 66.40625 20.328125 58.90625 
Q 16.5 51.421875 16.5 36.375 
Q 16.5 21.390625 20.328125 13.890625 
Q 24.171875 6.390625 31.78125 6.390625 
Q 39.453125 6.390625 43.28125 13.890625 
Q 47.125 21.390625 47.125 36.375 
Q 47.125 51.421875 43.28125 58.90625 
Q 39.453125 66.40625 31.78125 66.40625 
M 31.78125 74.21875 
Q 44.046875 74.21875 50.515625 64.515625 
Q 56.984375 54.828125 56.984375 36.375 
Q 56.984375 17.96875 50.515625 8.265625 
Q 44.046875 -1.421875 31.78125 -1.421875 
Q 19.53125 -1.421875 13.0625 8.265625 
Q 6.59375 17.96875 6.59375 36.375 
Q 6.59375 54.828125 13.0625 64.515625 
Q 19.53125 74.21875 31.78125 74.21875 
" id="BitstreamVeraSans-Roman-30"/>
       <path d="M 33.015625 40.375 
Q 26.375 40.375 22.484375 35.828125 
Q 18.609375 31.296875 18.609375 23.390625 
Q 18.609375 15.53125 22.484375 10.953125 
Q 26.375 6.390625 33.015625 6.390625 
Q 39.65625 6.390625 43.53125 10.953125 
Q 47.40625 15.53125 47.40625 23.390625 
Q 47.40625 31.296875 43.53125 35.828125 
Q 39.65625 40.375 33.015625 40.375 
M 52.59375 71.296875 
L 52.59375 62.3125 
Q 48.875 64.0625 45.09375 64.984375 
Q 41.3125 65.921875 37.59375 65.921875 
Q 27.828125 65.921875 22.671875 59.328125 
Q 17.53125 52.734375 16.796875 39.40625 
Q 19.671875 43.65625 24.015625 45.921875 
Q 28.375 48.1875 33.59375 48.1875 
Q 44.578125 48.1875 50.953125 41.515625 
Q 57.328125 34.859375 57.328125 23.390625 
Q 57.328125 12.15625 50.6875 5.359375 
Q 44.046875 -1.421875 33.015625 -1.421875 
Q 20.359375 -1.421875 13.671875 8.265625 
Q 6.984375 17.96875 6.984375 36.375 
Q 6.984375 53.65625 15.1875 63.9375 
Q 23.390625 74.21875 37.203125 74.21875 
Q 40.921875 74.21875 44.703125 73.484375 
Q 48.484375 72.75 52.59375 71.296875 
" id="BitstreamVeraSans-Roman-36"/>
      </defs>
      <g transform="translate(43.17453125 256.1165625)scale(0.1 -0.1)">
       <use xlink:href="#BitstreamVeraSans-Roman-2212"/>
       <use x="83.7890625" xlink:href="#BitstreamVeraSans-Roman-36"/>
       <use x="147.412109375" xlink:href="#BitstreamVeraSans-Roman-30"/>
       <use x="211.03515625" xlink:href="#BitstreamVeraSans-Roman-30"/>
      </g>
     </g>
    </g>
    <g id="xtick_2">
     <g id="line2d_7">
      <g>
       <use style="stroke:#000000;stroke-width:0.5;" x="101.548125" xlink:href="#m34ef3ea750" y="244.518125"/>
      </g>
     </g>
     <g id="line2d_8">
      <g>
       <use style="stroke:#000000;stroke-width:0.5;" x="101.548125" xlink:href="#m0ffe1f01fa" y="21.318125"/>
      </g>
     </g>
     <g id="text_2">
      <!-- −400 -->
      <defs>
       <path d="M 37.796875 64.3125 
L 12.890625 25.390625 
L 37.796875 25.390625 
z
M 35.203125 72.90625 
L 47.609375 72.90625 
L 47.609375 25.390625 
L 58.015625 25.390625 
L 58.015625 17.1875 
L 47.609375 17.1875 
L 47.609375 0 
L 37.796875 0 
L 37.796875 17.1875 
L 4.890625 17.1875 
L 4.890625 26.703125 
z
" id="BitstreamVeraSans-Roman-34"/>
      </defs>
      <g transform="translate(87.81453125 256.1165625)scale(0.1 -0.1)">
       <use xlink:href="#BitstreamVeraSans-Roman-2212"/>
       <use x="83.7890625" xlink:href="#BitstreamVeraSans-Roman-34"/>
       <use x="147.412109375" xlink:href="#BitstreamVeraSans-Roman-30"/>
       <use x="211.03515625" xlink:href="#BitstreamVeraSans-Roman-30"/>
      </g>
     </g>
    </g>
    <g id="xtick_3">
     <g id="line2d_9">
      <g>
       <use style="stroke:#000000;stroke-width:0.5;" x="146.188125" xlink:href="#m34ef3ea750" y="244.518125"/>
      </g>
     </g>
     <g id="line2d_10">
      <g>
       <use style="stroke:#000000;stroke-width:0.5;" x="146.188125" xlink:href="#m0ffe1f01fa" y="21.318125"/>
      </g>
     </g>
     <g id="text_3">
      <!-- −200 -->
      <defs>
       <path d="M 19.1875 8.296875 
L 53.609375 8.296875 
L 53.609375 0 
L 7.328125 0 
L 7.328125 8.296875 
Q 12.9375 14.109375 22.625 23.890625 
Q 32.328125 33.6875 34.8125 36.53125 
Q 39.546875 41.84375 41.421875 45.53125 
Q 43.3125 49.21875 43.3125 52.78125 
Q 43.3125 58.59375 39.234375 62.25 
Q 35.15625 65.921875 28.609375 65.921875 
Q 23.96875 65.921875 18.8125 64.3125 
Q 13.671875 62.703125 7.8125 59.421875 
L 7.8125 69.390625 
Q 13.765625 71.78125 18.9375 73 
Q 24.125 74.21875 28.421875 74.21875 
Q 39.75 74.21875 46.484375 68.546875 
Q 53.21875 62.890625 53.21875 53.421875 
Q 53.21875 48.921875 51.53125 44.890625 
Q 49.859375 40.875 45.40625 35.40625 
Q 44.1875 33.984375 37.640625 27.21875 
Q 31.109375 20.453125 19.1875 8.296875 
" id="BitstreamVeraSans-Roman-32"/>
      </defs>
      <g transform="translate(132.45453125 256.1165625)scale(0.1 -0.1)">
       <use xlink:href="#BitstreamVeraSans-Roman-2212"/>
       <use x="83.7890625" xlink:href="#BitstreamVeraSans-Roman-32"/>
       <use x="147.412109375" xlink:href="#BitstreamVeraSans-Roman-30"/>
       <use x="211.03515625" xlink:href="#BitstreamVeraSans-Roman-30"/>
      </g>
     </g>
    </g>
    <g id="xtick_4">
     <g id="line2d_11">
      <g>
       <use style="stroke:#000000;stroke-width:0.5;" x="190.828125" xlink:href="#m34ef3ea750" y="244.518125"/>
      </g>
     </g>
     <g id="line2d_12">
      <g>
       <use style="stroke:#000000;stroke-width:0.5;" x="190.828125" xlink:href="#m0ffe1f01fa" y="21.318125"/>
      </g>
     </g>
     <g id="text_4">
      <!-- 0 -->
      <g transform="translate(187.646875 256.1165625)scale(0.1 -0.1)">
       <use xlink:href="#BitstreamVeraSans-Roman-30"/>
      </g>
     </g>
    </g>
    <g id="xtick_5">
     <g id="line2d_13">
      <g>
       <use style="stroke:#000000;stroke-width:0.5;" x="235.468125" xlink:href="#m34ef3ea750" y="244.518125"/>
      </g>
     </g>
     <g id="line2d_14">
      <g>
       <use style="stroke:#000000;stroke-width:0.5;" x="235.468125" xlink:href="#m0ffe1f01fa" y="21.318125"/>
      </g>
     </g>
     <g id="text_5">
      <!-- 200 -->
      <g transform="translate(225.924375 256.1165625)scale(0.1 -0.1)">
       <use xlink:href="#BitstreamVeraSans-Roman-32"/>
       <use x="63.623046875" xlink:href="#BitstreamVeraSans-Roman-30"/>
       <use x="127.24609375" xlink:href="#BitstreamVeraSans-Roman-30"/>
      </g>
     </g>
    </g>
    <g id="xtick_6">
     <g id="line2d_15">
      <g>
       <use style="stroke:#000000;stroke-width:0.5;" x="280.108125" xlink:href="#m34ef3ea750" y="244.518125"/>
      </g>
     </g>
     <g id="line2d_16">
      <g>
       <use style="stroke:#000000;stroke-width:0.5;" x="280.108125" xlink:href="#m0ffe1f01fa" y="21.318125"/>
      </g>
     </g>
     <g id="text_6">
      <!-- 400 -->
      <g transform="translate(270.564375 256.1165625)scale(0.1 -0.1)">
       <use xlink:href="#BitstreamVeraSans-Roman-34"/>
       <use x="63.623046875" xlink:href="#BitstreamVeraSans-Roman-30"/>
       <use x="127.24609375" xlink:href="#BitstreamVeraSans-Roman-30"/>
      </g>
     </g>
    </g>
    <g id="xtick_7">
     <g id="line2d_17">
      <g>
       <use style="stroke:#000000;stroke-width:0.5;" x="324.748125" xlink:href="#m34ef3ea750" y="244.518125"/>
      </g>
     </g>
     <g id="line2d_18">
      <g>
       <use style="stroke:#000000;stroke-width:0.5;" x="324.748125" xlink:href="#m0ffe1f01fa" y="21.318125"/>
      </g>
     </g>
     <g id="text_7">
      <!-- 600 -->
      <g transform="translate(315.204375 256.1165625)scale(0.1 -0.1)">
       <use xlink:href="#BitstreamVeraSans-Roman-36"/>
       <use x="63.623046875" xlink:href="#BitstreamVeraSans-Roman-30"/>
       <use x="127.24609375" xlink:href="#BitstreamVeraSans-Roman-30"/>
      </g>
     </g>
    </g>
    <g id="xtick_8">
     <g id="line2d_19">
      <g>
       <use style="stroke:#000000;stroke-width:0.5;" x="369.388125" xlink:href="#m34ef3ea750" y="244.518125"/>
      </g>
     </g>
     <g id="line2d_20">
      <g>
       <use style="stroke:#000000;stroke-width:0.5;" x="369.388125" xlink:href="#m0ffe1f01fa" y="21.318125"/>
      </g>
     </g>
     <g id="text_8">
      <!-- 800 -->
      <defs>
       <path d="M 31.78125 34.625 
Q 24.75 34.625 20.71875 30.859375 
Q 16.703125 27.09375 16.703125 20.515625 
Q 16.703125 13.921875 20.71875 10.15625 
Q 24.75 6.390625 31.78125 6.390625 
Q 38.8125 6.390625 42.859375 10.171875 
Q 46.921875 13.96875 46.921875 20.515625 
Q 46.921875 27.09375 42.890625 30.859375 
Q 38.875 34.625 31.78125 34.625 
M 21.921875 38.8125 
Q 15.578125 40.375 12.03125 44.71875 
Q 8.5 49.078125 8.5 55.328125 
Q 8.5 64.0625 14.71875 69.140625 
Q 20.953125 74.21875 31.78125 74.21875 
Q 42.671875 74.21875 48.875 69.140625 
Q 55.078125 64.0625 55.078125 55.328125 
Q 55.078125 49.078125 51.53125 44.71875 
Q 48 40.375 41.703125 38.8125 
Q 48.828125 37.15625 52.796875 32.3125 
Q 56.78125 27.484375 56.78125 20.515625 
Q 56.78125 9.90625 50.3125 4.234375 
Q 43.84375 -1.421875 31.78125 -1.421875 
Q 19.734375 -1.421875 13.25 4.234375 
Q 6.78125 9.90625 6.78125 20.515625 
Q 6.78125 27.484375 10.78125 32.3125 
Q 14.796875 37.15625 21.921875 38.8125 
M 18.3125 54.390625 
Q 18.3125 48.734375 21.84375 45.5625 
Q 25.390625 42.390625 31.78125 42.390625 
Q 38.140625 42.390625 41.71875 45.5625 
Q 45.3125 48.734375 45.3125 54.390625 
Q 45.3125 60.0625 41.71875 63.234375 
Q 38.140625 66.40625 31.78125 66.40625 
Q 25.390625 66.40625 21.84375 63.234375 
Q 18.3125 60.0625 18.3125 54.390625 
" id="BitstreamVeraSans-Roman-38"/>
      </defs>
      <g transform="translate(359.844375 256.1165625)scale(0.1 -0.1)">
       <use xlink:href="#BitstreamVeraSans-Roman-38"/>
       <use x="63.623046875" xlink:href="#BitstreamVeraSans-Roman-30"/>
       <use x="127.24609375" xlink:href="#BitstreamVeraSans-Roman-30"/>
      </g>
     </g>
    </g>
    <g id="text_9">
     <!-- Cross Range [m] -->
     <defs>
      <path id="BitstreamVeraSans-Roman-20"/>
      <path d="M 8.59375 75.984375 
L 29.296875 75.984375 
L 29.296875 69 
L 17.578125 69 
L 17.578125 -6.203125 
L 29.296875 -6.203125 
L 29.296875 -13.1875 
L 8.59375 -13.1875 
z
" id="BitstreamVeraSans-Roman-5b"/>
      <path d="M 30.421875 75.984375 
L 30.421875 -13.1875 
L 9.71875 -13.1875 
L 9.71875 -6.203125 
L 21.390625 -6.203125 
L 21.390625 69 
L 9.71875 69 
L 9.71875 75.984375 
z
" id="BitstreamVeraSans-Roman-5d"/>
      <path d="M 54.890625 33.015625 
L 54.890625 0 
L 45.90625 0 
L 45.90625 32.71875 
Q 45.90625 40.484375 42.875 44.328125 
Q 39.84375 48.1875 33.796875 48.1875 
Q 26.515625 48.1875 22.3125 43.546875 
Q 18.109375 38.921875 18.109375 30.90625 
L 18.109375 0 
L 9.078125 0 
L 9.078125 54.6875 
L 18.109375 54.6875 
L 18.109375 46.1875 
Q 21.34375 51.125 25.703125 53.5625 
Q 30.078125 56 35.796875 56 
Q 45.21875 56 50.046875 50.171875 
Q 54.890625 44.34375 54.890625 33.015625 
" id="BitstreamVeraSans-Roman-6e"/>
      <path d="M 34.28125 27.484375 
Q 23.390625 27.484375 19.1875 25 
Q 14.984375 22.515625 14.984375 16.5 
Q 14.984375 11.71875 18.140625 8.90625 
Q 21.296875 6.109375 26.703125 6.109375 
Q 34.1875 6.109375 38.703125 11.40625 
Q 43.21875 16.703125 43.21875 25.484375 
L 43.21875 27.484375 
z
M 52.203125 31.203125 
L 52.203125 0 
L 43.21875 0 
L 43.21875 8.296875 
Q 40.140625 3.328125 35.546875 0.953125 
Q 30.953125 -1.421875 24.3125 -1.421875 
Q 15.921875 -1.421875 10.953125 3.296875 
Q 6 8.015625 6 15.921875 
Q 6 25.140625 12.171875 29.828125 
Q 18.359375 34.515625 30.609375 34.515625 
L 43.21875 34.515625 
L 43.21875 35.40625 
Q 43.21875 41.609375 39.140625 45 
Q 35.0625 48.390625 27.6875 48.390625 
Q 23 48.390625 18.546875 47.265625 
Q 14.109375 46.140625 10.015625 43.890625 
L 10.015625 52.203125 
Q 14.9375 54.109375 19.578125 55.046875 
Q 24.21875 56 28.609375 56 
Q 40.484375 56 46.34375 49.84375 
Q 52.203125 43.703125 52.203125 31.203125 
" id="BitstreamVeraSans-Roman-61"/>
      <path d="M 30.609375 48.390625 
Q 23.390625 48.390625 19.1875 42.75 
Q 14.984375 37.109375 14.984375 27.296875 
Q 14.984375 17.484375 19.15625 11.84375 
Q 23.34375 6.203125 30.609375 6.203125 
Q 37.796875 6.203125 41.984375 11.859375 
Q 46.1875 17.53125 46.1875 27.296875 
Q 46.1875 37.015625 41.984375 42.703125 
Q 37.796875 48.390625 30.609375 48.390625 
M 30.609375 56 
Q 42.328125 56 49.015625 48.375 
Q 55.71875 40.765625 55.71875 27.296875 
Q 55.71875 13.875 49.015625 6.21875 
Q 42.328125 -1.421875 30.609375 -1.421875 
Q 18.84375 -1.421875 12.171875 6.21875 
Q 5.515625 13.875 5.515625 27.296875 
Q 5.515625 40.765625 12.171875 48.375 
Q 18.84375 56 30.609375 56 
" id="BitstreamVeraSans-Roman-6f"/>
      <path d="M 44.390625 34.1875 
Q 47.5625 33.109375 50.5625 29.59375 
Q 53.5625 26.078125 56.59375 19.921875 
L 66.609375 0 
L 56 0 
L 46.6875 18.703125 
Q 43.0625 26.03125 39.671875 28.421875 
Q 36.28125 30.8125 30.421875 30.8125 
L 19.671875 30.8125 
L 19.671875 0 
L 9.8125 0 
L 9.8125 72.90625 
L 32.078125 72.90625 
Q 44.578125 72.90625 50.734375 67.671875 
Q 56.890625 62.453125 56.890625 51.90625 
Q 56.890625 45.015625 53.6875 40.46875 
Q 50.484375 35.9375 44.390625 34.1875 
M 19.671875 64.796875 
L 19.671875 38.921875 
L 32.078125 38.921875 
Q 39.203125 38.921875 42.84375 42.21875 
Q 46.484375 45.515625 46.484375 51.90625 
Q 46.484375 58.296875 42.84375 61.546875 
Q 39.203125 64.796875 32.078125 64.796875 
z
" id="BitstreamVeraSans-Roman-52"/>
      <path d="M 64.40625 67.28125 
L 64.40625 56.890625 
Q 59.421875 61.53125 53.78125 63.8125 
Q 48.140625 66.109375 41.796875 66.109375 
Q 29.296875 66.109375 22.65625 58.46875 
Q 16.015625 50.828125 16.015625 36.375 
Q 16.015625 21.96875 22.65625 14.328125 
Q 29.296875 6.6875 41.796875 6.6875 
Q 48.140625 6.6875 53.78125 8.984375 
Q 59.421875 11.28125 64.40625 15.921875 
L 64.40625 5.609375 
Q 59.234375 2.09375 53.4375 0.328125 
Q 47.65625 -1.421875 41.21875 -1.421875 
Q 24.65625 -1.421875 15.125 8.703125 
Q 5.609375 18.84375 5.609375 36.375 
Q 5.609375 53.953125 15.125 64.078125 
Q 24.65625 74.21875 41.21875 74.21875 
Q 47.75 74.21875 53.53125 72.484375 
Q 59.328125 70.75 64.40625 67.28125 
" id="BitstreamVeraSans-Roman-43"/>
      <path d="M 52 44.1875 
Q 55.375 50.25 60.0625 53.125 
Q 64.75 56 71.09375 56 
Q 79.640625 56 84.28125 50.015625 
Q 88.921875 44.046875 88.921875 33.015625 
L 88.921875 0 
L 79.890625 0 
L 79.890625 32.71875 
Q 79.890625 40.578125 77.09375 44.375 
Q 74.3125 48.1875 68.609375 48.1875 
Q 61.625 48.1875 57.5625 43.546875 
Q 53.515625 38.921875 53.515625 30.90625 
L 53.515625 0 
L 44.484375 0 
L 44.484375 32.71875 
Q 44.484375 40.625 41.703125 44.40625 
Q 38.921875 48.1875 33.109375 48.1875 
Q 26.21875 48.1875 22.15625 43.53125 
Q 18.109375 38.875 18.109375 30.90625 
L 18.109375 0 
L 9.078125 0 
L 9.078125 54.6875 
L 18.109375 54.6875 
L 18.109375 46.1875 
Q 21.1875 51.21875 25.484375 53.609375 
Q 29.78125 56 35.6875 56 
Q 41.65625 56 45.828125 52.96875 
Q 50 49.953125 52 44.1875 
" id="BitstreamVeraSans-Roman-6d"/>
      <path d="M 56.203125 29.59375 
L 56.203125 25.203125 
L 14.890625 25.203125 
Q 15.484375 15.921875 20.484375 11.0625 
Q 25.484375 6.203125 34.421875 6.203125 
Q 39.59375 6.203125 44.453125 7.46875 
Q 49.3125 8.734375 54.109375 11.28125 
L 54.109375 2.78125 
Q 49.265625 0.734375 44.1875 -0.34375 
Q 39.109375 -1.421875 33.890625 -1.421875 
Q 20.796875 -1.421875 13.15625 6.1875 
Q 5.515625 13.8125 5.515625 26.8125 
Q 5.515625 40.234375 12.765625 48.109375 
Q 20.015625 56 32.328125 56 
Q 43.359375 56 49.78125 48.890625 
Q 56.203125 41.796875 56.203125 29.59375 
M 47.21875 32.234375 
Q 47.125 39.59375 43.09375 43.984375 
Q 39.0625 48.390625 32.421875 48.390625 
Q 24.90625 48.390625 20.390625 44.140625 
Q 15.875 39.890625 15.1875 32.171875 
z
" id="BitstreamVeraSans-Roman-65"/>
      <path d="M 45.40625 27.984375 
Q 45.40625 37.75 41.375 43.109375 
Q 37.359375 48.484375 30.078125 48.484375 
Q 22.859375 48.484375 18.828125 43.109375 
Q 14.796875 37.75 14.796875 27.984375 
Q 14.796875 18.265625 18.828125 12.890625 
Q 22.859375 7.515625 30.078125 7.515625 
Q 37.359375 7.515625 41.375 12.890625 
Q 45.40625 18.265625 45.40625 27.984375 
M 54.390625 6.78125 
Q 54.390625 -7.171875 48.1875 -13.984375 
Q 42 -20.796875 29.203125 -20.796875 
Q 24.46875 -20.796875 20.265625 -20.09375 
Q 16.0625 -19.390625 12.109375 -17.921875 
L 12.109375 -9.1875 
Q 16.0625 -11.328125 19.921875 -12.34375 
Q 23.78125 -13.375 27.78125 -13.375 
Q 36.625 -13.375 41.015625 -8.765625 
Q 45.40625 -4.15625 45.40625 5.171875 
L 45.40625 9.625 
Q 42.625 4.78125 38.28125 2.390625 
Q 33.9375 0 27.875 0 
Q 17.828125 0 11.671875 7.65625 
Q 5.515625 15.328125 5.515625 27.984375 
Q 5.515625 40.671875 11.671875 48.328125 
Q 17.828125 56 27.875 56 
Q 33.9375 56 38.28125 53.609375 
Q 42.625 51.21875 45.40625 46.390625 
L 45.40625 54.6875 
L 54.390625 54.6875 
z
" id="BitstreamVeraSans-Roman-67"/>
      <path d="M 41.109375 46.296875 
Q 39.59375 47.171875 37.8125 47.578125 
Q 36.03125 48 33.890625 48 
Q 26.265625 48 22.1875 43.046875 
Q 18.109375 38.09375 18.109375 28.8125 
L 18.109375 0 
L 9.078125 0 
L 9.078125 54.6875 
L 18.109375 54.6875 
L 18.109375 46.1875 
Q 20.953125 51.171875 25.484375 53.578125 
Q 30.03125 56 36.53125 56 
Q 37.453125 56 38.578125 55.875 
Q 39.703125 55.765625 41.0625 55.515625 
z
" id="BitstreamVeraSans-Roman-72"/>
      <path d="M 44.28125 53.078125 
L 44.28125 44.578125 
Q 40.484375 46.53125 36.375 47.5 
Q 32.28125 48.484375 27.875 48.484375 
Q 21.1875 48.484375 17.84375 46.4375 
Q 14.5 44.390625 14.5 40.28125 
Q 14.5 37.15625 16.890625 35.375 
Q 19.28125 33.59375 26.515625 31.984375 
L 29.59375 31.296875 
Q 39.15625 29.25 43.1875 25.515625 
Q 47.21875 21.78125 47.21875 15.09375 
Q 47.21875 7.46875 41.1875 3.015625 
Q 35.15625 -1.421875 24.609375 -1.421875 
Q 20.21875 -1.421875 15.453125 -0.5625 
Q 10.6875 0.296875 5.421875 2 
L 5.421875 11.28125 
Q 10.40625 8.6875 15.234375 7.390625 
Q 20.0625 6.109375 24.8125 6.109375 
Q 31.15625 6.109375 34.5625 8.28125 
Q 37.984375 10.453125 37.984375 14.40625 
Q 37.984375 18.0625 35.515625 20.015625 
Q 33.0625 21.96875 24.703125 23.78125 
L 21.578125 24.515625 
Q 13.234375 26.265625 9.515625 29.90625 
Q 5.8125 33.546875 5.8125 39.890625 
Q 5.8125 47.609375 11.28125 51.796875 
Q 16.75 56 26.8125 56 
Q 31.78125 56 36.171875 55.265625 
Q 40.578125 54.546875 44.28125 53.078125 
" id="BitstreamVeraSans-Roman-73"/>
     </defs>
     <g transform="translate(177.0078125 270.7946875)scale(0.1 -0.1)">
      <use xlink:href="#BitstreamVeraSans-Roman-43"/>
      <use x="69.82421875" xlink:href="#BitstreamVeraSans-Roman-72"/>
      <use x="110.90625" xlink:href="#BitstreamVeraSans-Roman-6f"/>
      <use x="172.087890625" xlink:href="#BitstreamVeraSans-Roman-73"/>
      <use x="224.1875" xlink:href="#BitstreamVeraSans-Roman-73"/>
      <use x="276.287109375" xlink:href="#BitstreamVeraSans-Roman-20"/>
      <use x="308.07421875" xlink:href="#BitstreamVeraSans-Roman-52"/>
      <use x="377.525390625" xlink:href="#BitstreamVeraSans-Roman-61"/>
      <use x="438.8046875" xlink:href="#BitstreamVeraSans-Roman-6e"/>
      <use x="502.18359375" xlink:href="#BitstreamVeraSans-Roman-67"/>
      <use x="565.66015625" xlink:href="#BitstreamVeraSans-Roman-65"/>
      <use x="627.18359375" xlink:href="#BitstreamVeraSans-Roman-20"/>
      <use x="658.970703125" xlink:href="#BitstreamVeraSans-Roman-5b"/>
      <use x="697.984375" xlink:href="#BitstreamVeraSans-Roman-6d"/>
      <use x="795.396484375" xlink:href="#BitstreamVeraSans-Roman-5d"/>
     </g>
    </g>
   </g>
   <g id="matplotlib.axis_2">
    <g id="ytick_1">
     <g id="line2d_21">
      <defs>
       <path d="M 0 0 
L 4 0 
" id="ma40f2d07fd" style="stroke:#000000;stroke-width:0.5;"/>
      </defs>
      <g>
       <use style="stroke:#000000;stroke-width:0.5;" x="51.328125" xlink:href="#ma40f2d07fd" y="244.518125"/>
      </g>
     </g>
     <g id="line2d_22">
      <defs>
       <path d="M 0 0 
L -4 0 
" id="m82896ffdbb" style="stroke:#000000;stroke-width:0.5;"/>
      </defs>
      <g>
       <use style="stroke:#000000;stroke-width:0.5;" x="386.128125" xlink:href="#m82896ffdbb" y="244.518125"/>
      </g>
     </g>
     <g id="text_10">
      <!-- 0 -->
      <g transform="translate(40.965625 247.2775)scale(0.1 -0.1)">
       <use xlink:href="#BitstreamVeraSans-Roman-30"/>
      </g>
     </g>
    </g>
    <g id="ytick_2">
     <g id="line2d_23">
      <g>
       <use style="stroke:#000000;stroke-width:0.5;" x="51.328125" xlink:href="#ma40f2d07fd" y="199.878125"/>
      </g>
     </g>
     <g id="line2d_24">
      <g>
       <use style="stroke:#000000;stroke-width:0.5;" x="386.128125" xlink:href="#m82896ffdbb" y="199.878125"/>
      </g>
     </g>
     <g id="text_11">
      <!-- 200 -->
      <g transform="translate(28.240625 202.6375)scale(0.1 -0.1)">
       <use xlink:href="#BitstreamVeraSans-Roman-32"/>
       <use x="63.623046875" xlink:href="#BitstreamVeraSans-Roman-30"/>
       <use x="127.24609375" xlink:href="#BitstreamVeraSans-Roman-30"/>
      </g>
     </g>
    </g>
    <g id="ytick_3">
     <g id="line2d_25">
      <g>
       <use style="stroke:#000000;stroke-width:0.5;" x="51.328125" xlink:href="#ma40f2d07fd" y="155.238125"/>
      </g>
     </g>
     <g id="line2d_26">
      <g>
       <use style="stroke:#000000;stroke-width:0.5;" x="386.128125" xlink:href="#m82896ffdbb" y="155.238125"/>
      </g>
     </g>
     <g id="text_12">
      <!-- 400 -->
      <g transform="translate(28.240625 157.9975)scale(0.1 -0.1)">
       <use xlink:href="#BitstreamVeraSans-Roman-34"/>
       <use x="63.623046875" xlink:href="#BitstreamVeraSans-Roman-30"/>
       <use x="127.24609375" xlink:href="#BitstreamVeraSans-Roman-30"/>
      </g>
     </g>
    </g>
    <g id="ytick_4">
     <g id="line2d_27">
      <g>
       <use style="stroke:#000000;stroke-width:0.5;" x="51.328125" xlink:href="#ma40f2d07fd" y="110.598125"/>
      </g>
     </g>
     <g id="line2d_28">
      <g>
       <use style="stroke:#000000;stroke-width:0.5;" x="386.128125" xlink:href="#m82896ffdbb" y="110.598125"/>
      </g>
     </g>
     <g id="text_13">
      <!-- 600 -->
      <g transform="translate(28.240625 113.3575)scale(0.1 -0.1)">
       <use xlink:href="#BitstreamVeraSans-Roman-36"/>
       <use x="63.623046875" xlink:href="#BitstreamVeraSans-Roman-30"/>
       <use x="127.24609375" xlink:href="#BitstreamVeraSans-Roman-30"/>
      </g>
     </g>
    </g>
    <g id="ytick_5">
     <g id="line2d_29">
      <g>
       <use style="stroke:#000000;stroke-width:0.5;" x="51.328125" xlink:href="#ma40f2d07fd" y="65.958125"/>
      </g>
     </g>
     <g id="line2d_30">
      <g>
       <use style="stroke:#000000;stroke-width:0.5;" x="386.128125" xlink:href="#m82896ffdbb" y="65.958125"/>
      </g>
     </g>
     <g id="text_14">
      <!-- 800 -->
      <g transform="translate(28.240625 68.7175)scale(0.1 -0.1)">
       <use xlink:href="#BitstreamVeraSans-Roman-38"/>
       <use x="63.623046875" xlink:href="#BitstreamVeraSans-Roman-30"/>
       <use x="127.24609375" xlink:href="#BitstreamVeraSans-Roman-30"/>
      </g>
     </g>
    </g>
    <g id="ytick_6">
     <g id="line2d_31">
      <g>
       <use style="stroke:#000000;stroke-width:0.5;" x="51.328125" xlink:href="#ma40f2d07fd" y="21.318125"/>
      </g>
     </g>
     <g id="line2d_32">
      <g>
       <use style="stroke:#000000;stroke-width:0.5;" x="386.128125" xlink:href="#m82896ffdbb" y="21.318125"/>
      </g>
     </g>
     <g id="text_15">
      <!-- 1000 -->
      <defs>
       <path d="M 12.40625 8.296875 
L 28.515625 8.296875 
L 28.515625 63.921875 
L 10.984375 60.40625 
L 10.984375 69.390625 
L 28.421875 72.90625 
L 38.28125 72.90625 
L 38.28125 8.296875 
L 54.390625 8.296875 
L 54.390625 0 
L 12.40625 0 
z
" id="BitstreamVeraSans-Roman-31"/>
      </defs>
      <g transform="translate(21.878125 24.0775)scale(0.1 -0.1)">
       <use xlink:href="#BitstreamVeraSans-Roman-31"/>
       <use x="63.623046875" xlink:href="#BitstreamVeraSans-Roman-30"/>
       <use x="127.24609375" xlink:href="#BitstreamVeraSans-Roman-30"/>
       <use x="190.869140625" xlink:href="#BitstreamVeraSans-Roman-30"/>
      </g>
     </g>
    </g>
    <g id="text_16">
     <!-- Altitude [m] -->
     <defs>
      <path d="M 9.421875 75.984375 
L 18.40625 75.984375 
L 18.40625 0 
L 9.421875 0 
z
" id="BitstreamVeraSans-Roman-6c"/>
      <path d="M 9.421875 54.6875 
L 18.40625 54.6875 
L 18.40625 0 
L 9.421875 0 
z
M 9.421875 75.984375 
L 18.40625 75.984375 
L 18.40625 64.59375 
L 9.421875 64.59375 
z
" id="BitstreamVeraSans-Roman-69"/>
      <path d="M 34.1875 63.1875 
L 20.796875 26.90625 
L 47.609375 26.90625 
z
M 28.609375 72.90625 
L 39.796875 72.90625 
L 67.578125 0 
L 57.328125 0 
L 50.6875 18.703125 
L 17.828125 18.703125 
L 11.1875 0 
L 0.78125 0 
z
" id="BitstreamVeraSans-Roman-41"/>
      <path d="M 45.40625 46.390625 
L 45.40625 75.984375 
L 54.390625 75.984375 
L 54.390625 0 
L 45.40625 0 
L 45.40625 8.203125 
Q 42.578125 3.328125 38.25 0.953125 
Q 33.9375 -1.421875 27.875 -1.421875 
Q 17.96875 -1.421875 11.734375 6.484375 
Q 5.515625 14.40625 5.515625 27.296875 
Q 5.515625 40.1875 11.734375 48.09375 
Q 17.96875 56 27.875 56 
Q 33.9375 56 38.25 53.625 
Q 42.578125 51.265625 45.40625 46.390625 
M 14.796875 27.296875 
Q 14.796875 17.390625 18.875 11.75 
Q 22.953125 6.109375 30.078125 6.109375 
Q 37.203125 6.109375 41.296875 11.75 
Q 45.40625 17.390625 45.40625 27.296875 
Q 45.40625 37.203125 41.296875 42.84375 
Q 37.203125 48.484375 30.078125 48.484375 
Q 22.953125 48.484375 18.875 42.84375 
Q 14.796875 37.203125 14.796875 27.296875 
" id="BitstreamVeraSans-Roman-64"/>
      <path d="M 18.3125 70.21875 
L 18.3125 54.6875 
L 36.8125 54.6875 
L 36.8125 47.703125 
L 18.3125 47.703125 
L 18.3125 18.015625 
Q 18.3125 11.328125 20.140625 9.421875 
Q 21.96875 7.515625 27.59375 7.515625 
L 36.8125 7.515625 
L 36.8125 0 
L 27.59375 0 
Q 17.1875 0 13.234375 3.875 
Q 9.28125 7.765625 9.28125 18.015625 
L 9.28125 47.703125 
L 2.6875 47.703125 
L 2.6875 54.6875 
L 9.28125 54.6875 
L 9.28125 70.21875 
z
" id="BitstreamVeraSans-Roman-74"/>
      <path d="M 8.5 21.578125 
L 8.5 54.6875 
L 17.484375 54.6875 
L 17.484375 21.921875 
Q 17.484375 14.15625 20.5 10.265625 
Q 23.53125 6.390625 29.59375 6.390625 
Q 36.859375 6.390625 41.078125 11.03125 
Q 45.3125 15.671875 45.3125 23.6875 
L 45.3125 54.6875 
L 54.296875 54.6875 
L 54.296875 0 
L 45.3125 0 
L 45.3125 8.40625 
Q 42.046875 3.421875 37.71875 1 
Q 33.40625 -1.421875 27.6875 -1.421875 
Q 18.265625 -1.421875 13.375 4.4375 
Q 8.5 10.296875 8.5 21.578125 
" id="BitstreamVeraSans-Roman-75"/>
     </defs>
     <g transform="translate(14.7984375 162.81734375)rotate(-90.0)scale(0.1 -0.1)">
      <use xlink:href="#BitstreamVeraSans-Roman-41"/>
      <use x="68.408203125" xlink:href="#BitstreamVeraSans-Roman-6c"/>
      <use x="96.19140625" xlink:href="#BitstreamVeraSans-Roman-74"/>
      <use x="135.400390625" xlink:href="#BitstreamVeraSans-Roman-69"/>
      <use x="163.18359375" xlink:href="#BitstreamVeraSans-Roman-74"/>
      <use x="202.392578125" xlink:href="#BitstreamVeraSans-Roman-75"/>
      <use x="265.771484375" xlink:href="#BitstreamVeraSans-Roman-64"/>
      <use x="329.248046875" xlink:href="#BitstreamVeraSans-Roman-65"/>
      <use x="390.771484375" xlink:href="#BitstreamVeraSans-Roman-20"/>
      <use x="422.55859375" xlink:href="#BitstreamVeraSans-Roman-5b"/>
      <use x="461.572265625" xlink:href="#BitstreamVeraSans-Roman-6d"/>
      <use x="558.984375" xlink:href="#BitstreamVeraSans-Roman-5d"/>
     </g>
    </g>
   </g>
   <g id="text_17">
    <!-- Homotopic Trajectory Transitioning -->
    <defs>
     <path d="M 9.421875 54.6875 
L 18.40625 54.6875 
L 18.40625 -0.984375 
Q 18.40625 -11.421875 14.421875 -16.109375 
Q 10.453125 -20.796875 1.609375 -20.796875 
L -1.8125 -20.796875 
L -1.8125 -13.1875 
L 0.59375 -13.1875 
Q 5.71875 -13.1875 7.5625 -10.8125 
Q 9.421875 -8.453125 9.421875 -0.984375 
z
M 9.421875 75.984375 
L 18.40625 75.984375 
L 18.40625 64.59375 
L 9.421875 64.59375 
z
" id="BitstreamVeraSans-Roman-6a"/>
     <path d="M -0.296875 72.90625 
L 61.375 72.90625 
L 61.375 64.59375 
L 35.5 64.59375 
L 35.5 0 
L 25.59375 0 
L 25.59375 64.59375 
L -0.296875 64.59375 
z
" id="BitstreamVeraSans-Roman-54"/>
     <path d="M 18.109375 8.203125 
L 18.109375 -20.796875 
L 9.078125 -20.796875 
L 9.078125 54.6875 
L 18.109375 54.6875 
L 18.109375 46.390625 
Q 20.953125 51.265625 25.265625 53.625 
Q 29.59375 56 35.59375 56 
Q 45.5625 56 51.78125 48.09375 
Q 58.015625 40.1875 58.015625 27.296875 
Q 58.015625 14.40625 51.78125 6.484375 
Q 45.5625 -1.421875 35.59375 -1.421875 
Q 29.59375 -1.421875 25.265625 0.953125 
Q 20.953125 3.328125 18.109375 8.203125 
M 48.6875 27.296875 
Q 48.6875 37.203125 44.609375 42.84375 
Q 40.53125 48.484375 33.40625 48.484375 
Q 26.265625 48.484375 22.1875 42.84375 
Q 18.109375 37.203125 18.109375 27.296875 
Q 18.109375 17.390625 22.1875 11.75 
Q 26.265625 6.109375 33.40625 6.109375 
Q 40.53125 6.109375 44.609375 11.75 
Q 48.6875 17.390625 48.6875 27.296875 
" id="BitstreamVeraSans-Roman-70"/>
     <path d="M 32.171875 -5.078125 
Q 28.375 -14.84375 24.75 -17.8125 
Q 21.140625 -20.796875 15.09375 -20.796875 
L 7.90625 -20.796875 
L 7.90625 -13.28125 
L 13.1875 -13.28125 
Q 16.890625 -13.28125 18.9375 -11.515625 
Q 21 -9.765625 23.484375 -3.21875 
L 25.09375 0.875 
L 2.984375 54.6875 
L 12.5 54.6875 
L 29.59375 11.921875 
L 46.6875 54.6875 
L 56.203125 54.6875 
z
" id="BitstreamVeraSans-Roman-79"/>
     <path d="M 48.78125 52.59375 
L 48.78125 44.1875 
Q 44.96875 46.296875 41.140625 47.34375 
Q 37.3125 48.390625 33.40625 48.390625 
Q 24.65625 48.390625 19.8125 42.84375 
Q 14.984375 37.3125 14.984375 27.296875 
Q 14.984375 17.28125 19.8125 11.734375 
Q 24.65625 6.203125 33.40625 6.203125 
Q 37.3125 6.203125 41.140625 7.25 
Q 44.96875 8.296875 48.78125 10.40625 
L 48.78125 2.09375 
Q 45.015625 0.34375 40.984375 -0.53125 
Q 36.96875 -1.421875 32.421875 -1.421875 
Q 20.0625 -1.421875 12.78125 6.34375 
Q 5.515625 14.109375 5.515625 27.296875 
Q 5.515625 40.671875 12.859375 48.328125 
Q 20.21875 56 33.015625 56 
Q 37.15625 56 41.109375 55.140625 
Q 45.0625 54.296875 48.78125 52.59375 
" id="BitstreamVeraSans-Roman-63"/>
     <path d="M 9.8125 72.90625 
L 19.671875 72.90625 
L 19.671875 43.015625 
L 55.515625 43.015625 
L 55.515625 72.90625 
L 65.375 72.90625 
L 65.375 0 
L 55.515625 0 
L 55.515625 34.71875 
L 19.671875 34.71875 
L 19.671875 0 
L 9.8125 0 
z
" id="BitstreamVeraSans-Roman-48"/>
    </defs>
    <g transform="translate(112.7615625 16.318125)scale(0.12 -0.12)">
     <use xlink:href="#BitstreamVeraSans-Roman-48"/>
     <use x="75.1953125" xlink:href="#BitstreamVeraSans-Roman-6f"/>
     <use x="136.376953125" xlink:href="#BitstreamVeraSans-Roman-6d"/>
     <use x="233.7890625" xlink:href="#BitstreamVeraSans-Roman-6f"/>
     <use x="294.970703125" xlink:href="#BitstreamVeraSans-Roman-74"/>
     <use x="334.1796875" xlink:href="#BitstreamVeraSans-Roman-6f"/>
     <use x="395.361328125" xlink:href="#BitstreamVeraSans-Roman-70"/>
     <use x="458.837890625" xlink:href="#BitstreamVeraSans-Roman-69"/>
     <use x="486.62109375" xlink:href="#BitstreamVeraSans-Roman-63"/>
     <use x="541.6015625" xlink:href="#BitstreamVeraSans-Roman-20"/>
     <use x="573.388671875" xlink:href="#BitstreamVeraSans-Roman-54"/>
     <use x="634.25390625" xlink:href="#BitstreamVeraSans-Roman-72"/>
     <use x="675.3671875" xlink:href="#BitstreamVeraSans-Roman-61"/>
     <use x="736.646484375" xlink:href="#BitstreamVeraSans-Roman-6a"/>
     <use x="764.4296875" xlink:href="#BitstreamVeraSans-Roman-65"/>
     <use x="825.953125" xlink:href="#BitstreamVeraSans-Roman-63"/>
     <use x="880.93359375" xlink:href="#BitstreamVeraSans-Roman-74"/>
     <use x="920.142578125" xlink:href="#BitstreamVeraSans-Roman-6f"/>
     <use x="981.32421875" xlink:href="#BitstreamVeraSans-Roman-72"/>
     <use x="1022.4375" xlink:href="#BitstreamVeraSans-Roman-79"/>
     <use x="1081.6171875" xlink:href="#BitstreamVeraSans-Roman-20"/>
     <use x="1113.40429688" xlink:href="#BitstreamVeraSans-Roman-54"/>
     <use x="1174.26953125" xlink:href="#BitstreamVeraSans-Roman-72"/>
     <use x="1215.3828125" xlink:href="#BitstreamVeraSans-Roman-61"/>
     <use x="1276.66210938" xlink:href="#BitstreamVeraSans-Roman-6e"/>
     <use x="1340.04101562" xlink:href="#BitstreamVeraSans-Roman-73"/>
     <use x="1392.140625" xlink:href="#BitstreamVeraSans-Roman-69"/>
     <use x="1419.92382812" xlink:href="#BitstreamVeraSans-Roman-74"/>
     <use x="1459.1328125" xlink:href="#BitstreamVeraSans-Roman-69"/>
     <use x="1486.91601562" xlink:href="#BitstreamVeraSans-Roman-6f"/>
     <use x="1548.09765625" xlink:href="#BitstreamVeraSans-Roman-6e"/>
     <use x="1611.4765625" xlink:href="#BitstreamVeraSans-Roman-69"/>
     <use x="1639.25976562" xlink:href="#BitstreamVeraSans-Roman-6e"/>
     <use x="1702.63867188" xlink:href="#BitstreamVeraSans-Roman-67"/>
    </g>
   </g>
   <g id="legend_1">
    <g id="patch_7">
     <path d="M 310.753125 66.145625 
L 380.128125 66.145625 
L 380.128125 27.318125 
L 310.753125 27.318125 
z
" style="fill:#ffffff;stroke:#000000;stroke-linejoin:miter;"/>
    </g>
    <g id="line2d_33">
     <path d="M 319.153125 37.03625 
L 335.953125 37.03625 
" style="fill:none;stroke:#000000;stroke-linecap:square;"/>
    </g>
    <g id="line2d_34">
     <g>
      <use style="stroke:#000000;stroke-width:0.5;" x="319.153125" xlink:href="#mf07f0b4f3e" y="37.03625"/>
      <use style="stroke:#000000;stroke-width:0.5;" x="335.953125" xlink:href="#mf07f0b4f3e" y="37.03625"/>
     </g>
    </g>
    <g id="text_18">
     <!-- New -->
     <defs>
      <path d="M 4.203125 54.6875 
L 13.1875 54.6875 
L 24.421875 12.015625 
L 35.59375 54.6875 
L 46.1875 54.6875 
L 57.421875 12.015625 
L 68.609375 54.6875 
L 77.59375 54.6875 
L 63.28125 0 
L 52.6875 0 
L 40.921875 44.828125 
L 29.109375 0 
L 18.5 0 
z
" id="BitstreamVeraSans-Roman-77"/>
      <path d="M 9.8125 72.90625 
L 23.09375 72.90625 
L 55.421875 11.921875 
L 55.421875 72.90625 
L 64.984375 72.90625 
L 64.984375 0 
L 51.703125 0 
L 19.390625 60.984375 
L 19.390625 0 
L 9.8125 0 
z
" id="BitstreamVeraSans-Roman-4e"/>
     </defs>
     <g transform="translate(349.153125 41.23625)scale(0.12 -0.12)">
      <use xlink:href="#BitstreamVeraSans-Roman-4e"/>
      <use x="74.8046875" xlink:href="#BitstreamVeraSans-Roman-65"/>
      <use x="136.328125" xlink:href="#BitstreamVeraSans-Roman-77"/>
     </g>
    </g>
    <g id="line2d_35">
     <path d="M 319.153125 54.65 
L 335.953125 54.65 
" style="fill:none;stroke:#000000;stroke-dasharray:6.000000,6.000000;stroke-dashoffset:0.0;"/>
    </g>
    <g id="line2d_36">
     <g>
      <use style="stroke:#000000;stroke-width:0.5;" x="319.153125" xlink:href="#mf07f0b4f3e" y="54.65"/>
      <use style="stroke:#000000;stroke-width:0.5;" x="335.953125" xlink:href="#mf07f0b4f3e" y="54.65"/>
     </g>
    </g>
    <g id="text_19">
     <!-- Old -->
     <defs>
      <path d="M 39.40625 66.21875 
Q 28.65625 66.21875 22.328125 58.203125 
Q 16.015625 50.203125 16.015625 36.375 
Q 16.015625 22.609375 22.328125 14.59375 
Q 28.65625 6.59375 39.40625 6.59375 
Q 50.140625 6.59375 56.421875 14.59375 
Q 62.703125 22.609375 62.703125 36.375 
Q 62.703125 50.203125 56.421875 58.203125 
Q 50.140625 66.21875 39.40625 66.21875 
M 39.40625 74.21875 
Q 54.734375 74.21875 63.90625 63.9375 
Q 73.09375 53.65625 73.09375 36.375 
Q 73.09375 19.140625 63.90625 8.859375 
Q 54.734375 -1.421875 39.40625 -1.421875 
Q 24.03125 -1.421875 14.8125 8.828125 
Q 5.609375 19.09375 5.609375 36.375 
Q 5.609375 53.65625 14.8125 63.9375 
Q 24.03125 74.21875 39.40625 74.21875 
" id="BitstreamVeraSans-Roman-4f"/>
     </defs>
     <g transform="translate(349.153125 58.85)scale(0.12 -0.12)">
      <use xlink:href="#BitstreamVeraSans-Roman-4f"/>
      <use x="78.7109375" xlink:href="#BitstreamVeraSans-Roman-6c"/>
      <use x="106.494140625" xlink:href="#BitstreamVeraSans-Roman-64"/>
     </g>
    </g>
   </g>
  </g>
 </g>
 <defs>
  <clipPath id="p4154f5902c">
   <rect height="223.2" width="334.8" x="51.328125" y="21.318125"/>
  </clipPath>
 </defs>
</svg>
